<svg fill="none" height="480" viewBox="0 0 640 480" width="640" xmlns="http://www.w3.org/2000/svg" xmlns:xlink="http://www.w3.org/1999/xlink"><clipPath id="a"><path d="m0 0h640v480h-640z"/></clipPath><g clip-path="url(#a)"><g clip-rule="evenodd" fill-rule="evenodd"><path d="m0 53.3h640v53.4h-640z" fill="#fff"/><path d="m0 106.7h640v53.3h-640z" fill="#0d5eaf"/><path d="m0 160h640v53.3h-640z" fill="#fff"/></g><path d="m640 0v53.2998h-373.3v160.0002h373.3v53.4h-640v-266.7z" fill="#0d5eaf"/><path clip-rule="evenodd" d="m0 320h640v53.3h-640z" fill="#0d5eaf" fill-rule="evenodd"/><path clip-rule="evenodd" d="m0 373.3h640v53.4h-640z" fill="#fff" fill-rule="evenodd"/><path d="m640 320h-640v-53.3h106.7v-106.7h-106.7v-53.3h106.7v-106.7h53.3v106.7h106.7v53.3h-106.7v106.7h480z" fill="#fff"/><path d="m0 426.7h640v53.3h-640z" fill="#0d5eaf"/></g></svg>